<?xml version="1.0" encoding="utf-8"?>
<!-- Generator: Adobe Illustrator 19.0.0, SVG Export Plug-In . SVG Version: 6.00 Build 0)  -->
<svg version="1.1" id="Layer_1" xmlns="http://www.w3.org/2000/svg" xmlns:xlink="http://www.w3.org/1999/xlink" x="0px" y="0px"
	 viewBox="0 0 1008 1008" style="enable-background:new 0 0 1008 1008;" xml:space="preserve">
<style type="text/css">
	.Arched_x0020_Green{fill:url(#SVGID_1_);stroke:#FFFFFF;stroke-width:0.25;stroke-miterlimit:1;}
	.st0{fill-rule:evenodd;clip-rule:evenodd;fill:#2F4A87;}
	.st1{fill-rule:evenodd;clip-rule:evenodd;fill:#6EB152;}
	.st2{fill-rule:evenodd;clip-rule:evenodd;fill:#6CBDEE;}
	.st3{fill-rule:evenodd;clip-rule:evenodd;fill:#F3D531;}
	.st4{fill-rule:evenodd;clip-rule:evenodd;fill:#D8732D;}
	.st5{fill-rule:evenodd;clip-rule:evenodd;fill:#B7242A;}
	.st6{fill-rule:evenodd;clip-rule:evenodd;fill:#4E519D;}
	.st7{fill:#4E519D;}
	.st8{fill:#2F4A87;}
</style>
<linearGradient id="SVGID_1_" gradientUnits="userSpaceOnUse" x1="0" y1="1008" x2="0.7071" y2="1007.2929">
	<stop  offset="0" style="stop-color:#64AA52"/>
	<stop  offset="0.9831" style="stop-color:#273820"/>
</linearGradient>
<g>
	<path class="st0" d="M813.3,363c1.3,12.9-13.5,9.7-15.8,19c32,18.7,45.3,56.1,53.9,98.2c-16.9,18-39-2.4-57,9.5
		c5.8,12.2,27.1,8.9,22.2,31.7c-25,5.6-50,11.3-60.2,31.7c24.5-5.1,40.8-31.7,69.7-22.2c3,25.2-18.7,25.6-25.3,41.2
		c0.1,16.8,13.4,20.4,9.5,41.2c-1.2,3.8-2.1,4.9-3.2,6.3c-40.8,24.7-74.2-19.9-107.8-12.7c-14.1,24.9-37.1,41-60.2,57
		c4,16.1,18.1,22,15.8,44.4c-25.3-7-40.9-30.3-76-34.9c-36.9-4.8-79.6,2.6-120.4,3.2c28.2-26.3,71.4-30.4,104.6-50.7
		c13.8-8.4,28.8-22.4,41.2-34.9c11.7-11.7,29.4-27.7,28.5-47.5c-10.2-12.9-25.8-4.2-38-6.3c-24.6-4.4-47-14.9-50.7-41.2
		c-4.8-34.4,19.4-76.7,60.2-69.7c-5.2,19.1-29.1,19.5-34.9,38c22,6.1,26.8-21.9,50.7-22.2c29.6-0.3,38.9,22.6,41.2,60.2
		c5.5,11.8,25.2,17.5,38,12.7c6.2-8.5,1.9-27.7,3.2-41.2c23.9-1.7,34.8,9.5,53.9,12.7c18.7-11.9,32.1-29.2,44.4-47.5
		c-5.1-27.7-51.8-0.6-57-31.7c11.4-0.2,18.3-4.9,28.5-6.3c-22.8-16.2-34.5-7.6-60.2,0c14.1-16.5,18.7-42.6,53.9-38
		C773.3,335.3,800.5,347.1,813.3,363z"/>
	<path class="st0" d="M686.8,375.8c-13,11.8-26.6,38.2-44.4,34.8c-1-7.4,0.5-12.2,3.2-15.8c-14,6.1-19.9,20.3-44.4,15.8
		c-7.3-53,32.3-90.6,60.2-120.4c28.7-30.6,64.4-68.3,114.1-72.9c13.4,7.2,4.3,41.8,6.3,53.9c-34.5,33.1-80.6,54.6-110.9,91.9
		c2.1,0,4.2,0,6.3,0l2.1,8.3L686.8,375.8z"/>
	<path class="st0" d="M724.8,338.8l-9.5-7.4c17.6-12.7,52.2-45.7,76.1-22.2c-9.5,25.3-40.7,29-63.4,41.2L724.8,338.8z"/>
	<path class="st1" d="M575,334.7c0.7,0.4,1.1,0.9,1.2,1.4c3.3,11.2-5,33.8-12.5,44.5c-8.2,11.7-43.7,7.6-63.5,10.4
		c-27.7,3.9-55.6,3-83.3,7.4c-45.2,7.2-113.4,16.7-149.8,8.4c-31.9-7.3-73.4-16-87.4-45.6c14.4-17.9,44.3-10.2,68.7-11.1
		c43.9-1.7,88-2.4,131.4-8.6c51.2-7.4,87.6-12.8,126.5-17.2C515.4,323.2,566.4,329,575,334.7z"/>
	<path class="st2" d="M532.9,403.7c4.1,4.6-8.7,11.4-24.6,21.7c-91.5,28.5-239.8,129.6-329.9,25.1c1.2,1.4,63.8-15.4,70.3-16.7
		c20.3-4,40.1-4.6,60.1-7.1c42.9-5.5,64.3-6.3,98.5-12.4c23.5-4.3,46.4-11.3,70.2-14.1C497.7,397.8,527.2,397.3,532.9,403.7z"/>
	<path class="st3" d="M641.8,260.4c3.9,6.8,2.7,17.2-8.9,29.9c-24.6,26.8-69.6,26.6-106.2,30.8c-59.4,6.8-97.3,8.2-148.9,7.9
		c-48.4-0.3-119.2,5.1-163.2-19.7c-20.1-11.4-48.1-48-19-79.2c7-7.5,67.7,3,79.3,3.7c28,1.6,56,3.6,84,5.3
		c51.6,3.3,106,7.4,157.6,7.5C534.8,246.6,627.4,235.3,641.8,260.4z"/>
	<path class="st4" d="M664.2,244.6c-17.8,13.5-36.5,6.1-61.8,2.8c-95.8-12.8-193-30.9-289.5-42.7c-79-9.7-161.5-16.3-193.3-76
		c-1.7-2.6-3.3-5.1-3.2-9.5c2.6-0.6,3.1-3.2,6.3-3.1c163.5,43.4,369.9,26.4,522.6,98.1C661.1,221.5,666.2,243.1,664.2,244.6z"/>
	<path class="st5" d="M731.1,211c-25.2,10.3-51.9-7-76-15.9c-119.4-43.8-291.8-51.4-430.9-79.2C170.6,105.3,110,99.8,87.9,49.4
		c-0.9-5.1,3-5.4,3.2-9.5c2.6-0.6,3.2-3.2,6.3-3.2c92.9,43.4,253.6,50.7,377.1,69.7c52,8,98.9,21.2,142.6,38
		C660.2,161.1,705.8,175.5,731.1,211z"/>
	<path class="st0" d="M509.3,483.5c-13.5,20-40.2,19.8-63.4,31.7c-37.6,19.2-64.8,59.5-123.6,60.2c-29.6,0.4-61.7-8.8-82.4-28.5
		c9.6-14.5,32.9-20.2,53.9-28.5c53.3-21.2,131.7-50.6,186.9-63.4C499.6,450.6,509.8,470.4,509.3,483.5z M430.1,508.9
		C419.8,514.8,445.7,499.8,430.1,508.9L430.1,508.9z"/>
	<path class="st6" d="M550.5,546.9c-39,73.9-139.6,159.2-247.2,104.6c78.9-43.6,111.9-133.2,218.6-148.9
		C532.2,516.6,545.2,527.9,550.5,546.9z"/>
	<path class="st7" d="M197.9,917v-36.8c0-1.4,0.5-2.3,1.1-2.9c1.1-1.2,2.4-1.2,3.7-1.2h23.5v2.8h-23.7c-0.4,0-0.7,0-1.1,0.4
		c-0.3,0.4-0.4,0.9-0.4,1.3v14.3h18.4v2.8H201V917H197.9z"/>
	<path class="st7" d="M281.4,917c-0.6,0-2.3,0-3.3-0.9c-1-0.8-1.1-2-1.1-2.9v-37.2h3.2v36.1c0,0.5,0,1.1,0.5,1.5
		c0.5,0.4,1.2,0.5,1.8,0.5h23.5v2.8H281.4z"/>
	<path class="st7" d="M313.2,917c-0.6,0-2.3,0-3.3-0.9c-1-0.8-1.1-2-1.1-2.9v-37.2h3.2v36.1c0,0.5,0,1.1,0.5,1.5
		c0.5,0.4,1.2,0.5,1.8,0.5h23.5v2.8H313.2z"/>
	<path class="st7" d="M370.6,880c4.6,4.6,4.8,11.8,4.8,16.5c0,4.8-0.2,11.9-4.8,16.5c-4.2,4.2-10.4,4.4-15,4.4
		c-4.6,0-10.8-0.2-15-4.4c-4.6-4.6-4.9-11.8-4.9-16.5c0-4.7,0.3-11.9,4.9-16.5c4.2-4.2,10.4-4.4,15-4.4
		C360.2,875.6,366.4,875.8,370.6,880z M342.7,910.7c3.5,3.9,9,3.9,12.9,3.9c3.9,0,9.4,0,12.9-3.9c3.4-3.8,3.5-9.5,3.5-14.2
		c0-4.7-0.1-10.4-3.5-14.2c-3.5-3.9-9-3.9-12.9-3.9c-3.9,0-9.4,0-12.9,3.9c-3.4,3.8-3.5,9.5-3.5,14.2
		C339.2,901.3,339.3,906.9,342.7,910.7z"/>
	<path class="st7" d="M263.5,880c4.6,4.6,4.9,11.8,4.9,16.5c0,4.8-0.2,11.9-4.9,16.5c-4.2,4.2-10.4,4.4-15,4.4
		c-4.6,0-10.8-0.2-15-4.4c-4.6-4.6-4.9-11.8-4.9-16.5c0-4.7,0.3-11.9,4.9-16.5c4.2-4.2,10.4-4.4,15-4.4
		C253.1,875.6,259.3,875.8,263.5,880z M235.7,910.7c3.5,3.9,9,3.9,12.9,3.9c3.9,0,9.4,0,12.9-3.9c3.4-3.8,3.5-9.5,3.5-14.2
		c0-4.7-0.1-10.4-3.5-14.2c-3.5-3.9-9-3.9-12.9-3.9c-3.9,0-9.4,0-12.9,3.9c-3.4,3.8-3.5,9.5-3.5,14.2
		C232.1,901.3,232.3,906.9,235.7,910.7z"/>
	<path class="st7" d="M389.7,913.1c0.1,0.3,0.3,1.3,1,1.3c0.4,0,0.9-0.5,1.1-1.1l8.8-33.8c0.4-1.5,1.3-4,4.2-4c2.9,0,3.7,2.5,4.1,4
		l8.8,33.8c0.2,0.6,0.7,1.1,1.1,1.1c0.7,0,1-0.9,1-1.3l9.2-37.1h3.2l-9.7,37.9c-0.8,2.9-2.3,3.5-3.9,3.5c-2.8,0-3.6-2-4.1-3.7
		l-8.9-33.6c-0.1-0.3-0.3-1.2-0.9-1.2c-0.7,0-0.9,0.9-0.9,1.2l-8.9,33.6c-0.5,1.7-1.3,3.7-4.1,3.7c-1.5,0-3.1-0.6-3.8-3.5l-9.7-37.9
		h3.2L389.7,913.1z"/>
	<path class="st7" d="M486.4,876.1h3.5l-17,27.5V917h-3.2v-13.4l-16.9-27.5h3.5l15,24.6L486.4,876.1z"/>
	<path class="st7" d="M526.4,880c4.6,4.6,4.9,11.8,4.9,16.5c0,4.8-0.2,11.9-4.9,16.5c-4.2,4.2-10.4,4.4-15,4.4
		c-4.5,0-10.8-0.2-15-4.4c-4.6-4.6-4.9-11.8-4.9-16.5c0-4.7,0.2-11.9,4.9-16.5c4.2-4.2,10.4-4.4,15-4.4
		C516,875.6,522.2,875.8,526.4,880z M498.5,910.7c3.5,3.9,9,3.9,12.9,3.9c3.9,0,9.4,0,12.9-3.9c3.4-3.8,3.5-9.5,3.5-14.2
		c0-4.7-0.1-10.4-3.5-14.2c-3.5-3.9-9-3.9-12.9-3.9c-3.9,0-9.4,0-12.9,3.9c-3.4,3.8-3.5,9.5-3.5,14.2
		C495,901.3,495.1,906.9,498.5,910.7z"/>
	<path class="st7" d="M541.5,876.1v27.1c0,2.5,0.1,5.9,2.1,8.3c2.5,3,6.8,3.2,10.4,3.2c3.6,0,7.9-0.2,10.4-3.2
		c2-2.4,2.1-5.8,2.1-8.3v-27.1h3.1v28.2c0,2.9-0.5,6.3-2.9,9.1c-3.5,3.9-9.5,4.2-12.7,4.2c-3.3,0-9.2-0.3-12.8-4.2
		c-2.4-2.7-2.9-6.2-2.9-9.1v-28.2H541.5z"/>
	<path class="st7" d="M577.8,882.3c0-1.7,0.1-3.4,1.7-4.9c1.4-1.2,2.9-1.4,4.4-1.4h17.3c2.4,0,5.8,0.5,7.8,3.5
		c1.6,2.4,1.8,5.7,1.8,8.8c0,2.5-0.1,5.8-1.8,8.5c-1.8,2.9-4.8,3.6-7.3,3.6h-9.1v0.3l19.2,16.2h-4.6l-18.1-15.4
		c-0.9-0.8-1.1-0.9-1.1-1.6V899c0-0.9,0.6-1.3,1.4-1.3h12.7c2.1,0,3.6-1.2,4.2-2.3c0.6-1.1,1.1-3,1.1-7.3c0-1.8,0.1-5.9-1.9-7.8
		c-1.5-1.4-4-1.5-4.9-1.5h-16.7c-0.6,0-1.4,0-2.1,0.7c-0.7,0.6-0.8,1.4-0.8,2.1V917h-3.2V882.3z"/>
	<path class="st7" d="M674.6,917h-3.2v-19.4h-26.5V917h-3.2v-40.9h3.2v18.7h26.5v-18.7h3.2V917z"/>
	<path class="st7" d="M688.4,917c-1.4,0-3,0.1-4.3-1.2c-1.2-1.2-1.3-2.9-1.3-4.4v-29.8c0-2.4,0.9-3.6,1.2-3.9
		c1.2-1.4,2.7-1.5,4.3-1.5h24.1v2.8h-23.7c-0.6,0-1.7,0.2-2.1,0.6c-0.6,0.5-0.6,1.7-0.6,2.1v13.2h25.8v2.8H686V912
		c0,0.5,0.2,1.3,0.6,1.6c0.4,0.4,1.9,0.5,2.7,0.5h23.4v2.8H688.4z"/>
	<path class="st7" d="M730.1,879.9c0.9-2.2,2.1-4.3,4.6-4.3c2.5,0,3.6,2.2,4.6,4.3l15.7,37.1h-3.4l-5-11.9h-23.7l-5,11.9h-3.4
		L730.1,879.9z M724,902.3h21.3l-8.9-21.4c-0.4-0.8-0.9-2.3-1.7-2.3c-0.8,0-1.3,1.5-1.7,2.3L724,902.3z"/>
	<path class="st7" d="M758.4,882.3c0-1.7,0-3.4,1.7-4.9c1.4-1.2,2.9-1.4,4.5-1.4h17.2c2.4,0,5.8,0.5,7.8,3.5
		c1.6,2.4,1.8,5.7,1.8,8.8c0,2.5-0.1,5.8-1.8,8.5c-1.8,2.9-4.9,3.6-7.3,3.6h-9.1v0.3l19.2,16.2h-4.6l-18.1-15.4
		c-1-0.8-1.1-0.9-1.1-1.6V899c0-0.9,0.6-1.3,1.4-1.3h12.7c2.1,0,3.6-1.2,4.2-2.3c0.6-1.1,1.1-3,1.1-7.3c0-1.8,0.1-5.9-1.9-7.8
		c-1.5-1.4-4-1.5-4.8-1.5h-16.7c-0.6,0-1.4,0-2.1,0.7c-0.7,0.6-0.8,1.4-0.8,2.1V917h-3.2V882.3z"/>
	<path class="st7" d="M811.3,917v-38.1h-17.2v-2.8h37.4v2.8h-17.1V917H811.3z"/>
	<path class="st8" d="M237.6,778.6c9.5-15.2,17.3-25.8,23.4-31.9c10.4-10.3,21.8-15.4,34.3-15.4c12.6,0,24,5.1,34.3,15.4
		c6.1,6.1,13.9,16.7,23.4,31.9c8,12.7,14.2,21.4,18.5,26.1c7.1,7.8,14.3,11.6,21.5,11.6v19.5c-12.7,0-24.2-5.1-34.6-15.4
		c-6.2-6.1-14.1-16.8-23.6-32.1c-7.9-12.7-14-21.4-18.3-25.9c-6.9-7.8-14-11.6-21.3-11.6c-7.2,0-14.2,3.9-21.2,11.6
		c-4.3,4.6-10.4,13.2-18.3,25.9c-9.5,15.3-17.4,26-23.6,32.1c-10.4,10.3-21.9,15.4-34.6,15.4v-19.5c7.2,0,14.4-3.9,21.5-11.6
		C223.3,800,229.5,791.3,237.6,778.6z"/>
	<path class="st8" d="M675.5,778.6c9.5-15.2,17.3-25.8,23.4-31.9c10.3-10.3,21.8-15.4,34.3-15.4c12.6,0,24,5.1,34.4,15.4
		c6,6.1,13.9,16.7,23.4,31.9c8.1,12.7,14.2,21.4,18.5,26.1c7.1,7.8,14.3,11.6,21.5,11.6v19.5c-12.7,0-24.2-5.1-34.6-15.4
		c-6.2-6.1-14.1-16.8-23.6-32.1c-7.9-12.7-14-21.4-18.3-25.9c-6.9-7.8-14-11.6-21.3-11.6c-7.2,0-14.2,3.9-21.2,11.6
		c-4.3,4.6-10.4,13.2-18.3,25.9c-9.5,15.3-17.4,26-23.6,32.1c-10.4,10.3-21.9,15.4-34.6,15.4v-19.5c7.3,0,14.4-3.9,21.5-11.6
		C661.2,800,667.4,791.3,675.5,778.6z"/>
	<path class="st8" d="M516,819c0,0-0.9,15.5-1.3,15.6h-51.5c-5.4,0-10.3,0.5-15.4-1.7c-5.1-2.2-9-5.4-11.9-9.5
		c-2.9-4.1-4.6-8.3-4.6-12.8l0.3-44.9l21.1,0.8l0.2,43.8c0,1.5,0.5,2.9,1.4,4.3c0.9,1.4,2.3,2.4,4,3.2c1.7,0.8,3.5,1.1,5.2,1.1H516z
		"/>
	<polygon class="st8" points="521.5,819 521.1,834.6 489,834.6 489.4,819 	"/>
	<path class="st8" d="M642.5,731.6l0.2,21.3h-62.6c-1.7,0-3.3,0.5-4.9,1.4c-1.6,0.9-2.8,2.3-3.7,4c-0.9,1.7-1.3,3.5-1.3,5.3
		l0.2,46.6c0,11.2-4.2,19.8-12.6,25.9L547,818.2c2.5-1.7,3.7-4.7,3.7-8.9l-0.2-45.7c0-5.6,1.3-10.9,4-16.1c2.7-5.1,6.3-9.1,11-11.8
		c4.7-2.7,9.5-4.1,14.6-4.1L642.5,731.6z"/>
	<path class="st8" d="M620.7,783.2l-18.3-12c-1.8,2.7-4.8,4.1-9.1,4.1h-26.8v21.8h27.7C605.7,797.1,614.5,792.5,620.7,783.2z"/>
	<g>
		<path class="st0" d="M337.3,790.7c-3.5,5.2-10.4,5.1-16.4,8.2c-9.8,5-16.8,15.4-32.1,15.6c-7.7,0.1-16-2.3-21.4-7.4
			c2.5-3.8,8.5-5.2,14-7.4c13.8-5.5,34.2-13.1,48.5-16.4C334.8,782.1,337.4,787.2,337.3,790.7z M316.7,797.2
			C314.1,798.8,320.8,794.9,316.7,797.2L316.7,797.2z"/>
	</g>
	<g>
		<path class="st0" d="M774.5,790.7c-3.5,5.2-10.4,5.1-16.4,8.2c-9.8,5-16.8,15.4-32.1,15.6c-7.7,0.1-16-2.3-21.4-7.4
			c2.5-3.8,8.5-5.2,14-7.4c13.8-5.5,34.2-13.1,48.5-16.4C772,782.1,774.7,787.2,774.5,790.7z M754,797.2
			C751.3,798.8,758,794.9,754,797.2L754,797.2z"/>
	</g>
	<rect x="431.6" y="731.2" class="st8" width="21.4" height="62.1"/>
</g>
</svg>
